<svg width="1440" height="615" viewBox="0 0 1440 615" fill="none" xmlns="http://www.w3.org/2000/svg">
    <mask id="mask0_263_213" style="mask-type:luminance" maskUnits="userSpaceOnUse" x="0" y="283" width="1448" height="332">
        <path d="M1447.97 283H0V615H1447.97V283Z" fill="white"/>
    </mask>
    <g mask="url(#mask0_263_213)">
        <path d="M1444 323H-4V654.638H1444V323Z" fill="#F5F8FF"/>
        <path d="M1444 322H-4V653.638H1444V322Z" fill="#F5F8FF"/>
        <path d="M1357.89 587.459V631.909H1313.49V675.803H1312.39V631.909H1269.11V675.803H1267.99V631.909H1224.71V675.803H1223.6V631.909H1180.31V675.803H1179.2V631.909H1135.92V675.803H1134.81V631.909H1091.53V675.803H1090.42V631.909H1047.13V675.803H1046.02V631.909H1002.74V675.803H1001.63V631.909H958.343V675.803H957.233V631.909H913.949V675.803H912.839V631.909H869.555V675.803H869V630.798H912.95V586.348H957.233V497.449H1090.42V453H1402.28V587.459H1357.89ZM957.233 587.459H914.06V630.798H957.233V587.459ZM1001.63 498.561H958.343V541.899H1001.63V498.561ZM1001.63 543.01H958.343V586.348H1001.63V543.01ZM1001.63 587.459H958.454V630.798H1001.63V587.459ZM1046.02 498.561H1002.74V541.899H1046.02V498.561ZM1046.02 543.01H1002.74V586.348H1046.02V543.01ZM1046.02 587.459H1002.74V630.798H1046.02V587.459ZM1090.42 498.561H1047.13V541.899H1090.42V498.561ZM1090.42 543.01H1047.13V586.348H1090.42V543.01ZM1090.42 587.459H1047.13V630.798H1090.42V587.459ZM1134.81 454.111H1091.53V497.449H1134.81V454.111ZM1134.81 498.561H1091.53V541.899H1134.81V498.561ZM1134.81 543.01H1091.53V586.348H1134.81V543.01ZM1134.81 587.459H1091.53V630.798H1134.81V587.459ZM1179.2 454.111H1135.92V497.449H1179.2V454.111ZM1179.2 498.561H1135.92V541.899H1179.2V498.561ZM1179.2 543.01H1135.92V586.348H1179.2V543.01ZM1179.2 587.459H1135.92V630.798H1179.2V587.459ZM1223.6 454.111H1180.31V497.449H1223.6V454.111ZM1223.6 498.561H1180.31V541.899H1223.6V498.561ZM1223.6 543.01H1180.31V586.348H1223.6V543.01ZM1223.6 587.459H1180.31V630.798H1223.6V587.459ZM1267.99 454.111H1224.71V497.449H1267.99V454.111ZM1267.99 498.561H1224.71V541.899H1267.99V498.561ZM1267.99 543.01H1224.71V586.348H1267.99V543.01ZM1267.99 587.459H1224.71V630.798H1267.99V587.459ZM1312.39 454.111H1269.11V497.449H1312.39V454.111ZM1312.39 498.561H1269.11V541.899H1312.39V498.561ZM1312.39 543.01H1269.11V586.348H1312.39V543.01ZM1312.39 587.459H1269.11V630.798H1312.39V587.459ZM1356.78 454.111H1313.49V497.449H1356.78V454.111ZM1356.78 498.561H1313.49V541.899H1356.78V498.561ZM1356.78 543.01H1313.49V586.348H1356.78V543.01ZM1356.78 587.459H1313.49V630.798H1356.78V587.459ZM1401.18 454.111H1357.89V497.449H1401.18V454.111ZM1401.18 498.561H1357.89V541.899H1401.18V498.561ZM1401.18 543.01H1357.89V586.348H1401.18V543.01Z" fill="#102D4B" fill-opacity="0.1"/>
        <path d="M403.885 596.459V640.909H359.491V684.803H358.389V640.909H315.106V684.803H313.994V640.909H270.708V684.803H269.598V640.909H226.313V684.803H225.203V640.909H181.919V684.803H180.81V640.909H137.525V684.803H136.415V640.909H93.131V684.803H92.0219V640.909H48.7375V684.803H47.6274V640.909H4.343V684.803H3.23289V640.909H-40.0515V684.803H-41.1606V640.909H-84.4449V684.803H-85V639.798H-41.0504V595.348H3.23289V506.449H136.415V462H448.279V596.459H403.885ZM3.23289 596.459H-39.9403V639.798H3.23289V596.459ZM47.6274 507.561H4.343V550.899H47.6274V507.561ZM47.6274 552.01H4.343V595.348H47.6274V552.01ZM47.6274 596.459H4.45424V639.798H47.6274V596.459ZM92.0219 507.561H48.7375V550.899H92.0219V507.561ZM92.0219 552.01H48.7375V595.348H92.0219V552.01ZM92.0219 596.459H48.7375V639.798H92.0219V596.459ZM136.415 507.561H93.131V550.899H136.415V507.561ZM136.415 552.01H93.131V595.348H136.415V552.01ZM136.415 596.459H93.131V639.798H136.415V596.459ZM180.81 463.111H137.525V506.449H180.81V463.111ZM180.81 507.561H137.525V550.899H180.81V507.561ZM180.81 552.01H137.525V595.348H180.81V552.01ZM180.81 596.459H137.525V639.798H180.81V596.459ZM225.203 463.111H181.919V506.449H225.203V463.111ZM225.203 507.561H181.919V550.899H225.203V507.561ZM225.203 552.01H181.919V595.348H225.203V552.01ZM225.203 596.459H181.919V639.798H225.203V596.459ZM269.598 463.111H226.313V506.449H269.598V463.111ZM269.598 507.561H226.313V550.899H269.598V507.561ZM269.598 552.01H226.313V595.348H269.598V552.01ZM269.598 596.459H226.313V639.798H269.598V596.459ZM313.994 463.111H270.708V506.449H313.994V463.111ZM313.994 507.561H270.708V550.899H313.994V507.561ZM313.994 552.01H270.708V595.348H313.994V552.01ZM313.994 596.459H270.708V639.798H313.994V596.459ZM358.389 463.111H315.106V506.449H358.389V463.111ZM358.389 507.561H315.106V550.899H358.389V507.561ZM358.389 552.01H315.106V595.348H358.389V552.01ZM358.389 596.459H315.106V639.798H358.389V596.459ZM402.783 463.111H359.491V506.449H402.783V463.111ZM402.783 507.561H359.491V550.899H402.783V507.561ZM402.783 552.01H359.491V595.348H402.783V552.01ZM402.783 596.459H359.491V639.798H402.783V596.459ZM447.178 463.111H403.885V506.449H447.178V463.111ZM447.178 507.561H403.885V550.899H447.178V507.561ZM447.178 552.01H403.885V595.348H447.178V552.01Z" fill="#102D4B" fill-opacity="0.1"/>
        <path d="M1237.72 481.995H1247.55V514.112H1237.72V481.995ZM1256.07 468.23H1265.24V514.112H1256.07V468.23ZM1274.42 494.444H1283.6V514.112H1274.42V494.444Z" fill="#06284A" fill-opacity="0.25"/>
        <path d="M355 475.531C355 474.726 355.649 474.073 356.45 474.073C356.566 473.908 357.803 474.073 358.026 474.073C358.542 474.171 359.039 474.355 359.495 474.618C360.51 475.228 361.37 476.066 362.008 477.066C363.733 479.86 364.996 482.915 365.75 486.113C365.962 486.862 366.165 487.619 366.359 488.377C367.016 490.914 367.635 493.615 368.292 496.355C370.332 505.315 372.884 516.471 376.576 516.471C380.269 516.471 382.821 505.315 384.861 496.355C387.49 484.85 389.975 474.005 395.978 474.005C401.981 474.005 404.465 484.879 407.085 496.355C409.135 505.315 411.677 516.471 415.37 516.471C419.062 516.471 421.614 505.315 423.664 496.355C426.284 484.85 428.768 474.005 434.771 474.005C440.774 474.005 443.259 484.879 445.888 496.355C447.938 505.315 450.48 516.471 454.172 516.471H454.636C455.438 516.471 456.086 517.123 456.086 517.928C456.086 518.733 455.438 519.385 454.636 519.385H454.172C448.17 519.385 445.685 508.522 443.065 497.036C441.016 488.076 438.474 476.921 434.771 476.921C431.069 476.921 428.536 488.076 426.487 497.036C423.857 508.551 421.383 519.385 415.37 519.385C409.357 519.385 406.892 508.522 404.262 497.036C402.213 488.076 399.671 476.921 395.978 476.921C392.285 476.921 389.733 488.076 387.693 497.036C385.064 508.551 382.58 519.385 376.576 519.385C370.573 519.385 368.089 508.522 365.46 497.036C365.46 497.036 364.193 492.468 363.613 490.175C361.863 483.247 359.746 476.95 356.962 476.95H356.498C356.112 476.963 355.737 476.82 355.455 476.554C355.174 476.288 355.01 475.919 355 475.531Z" fill="#3DDC84"/>
        <path d="M1335.71 551.249C1335.71 550.444 1336.36 549.792 1337.15 549.792C1337.27 549.627 1338.51 549.792 1338.73 549.792C1339.25 549.89 1339.75 550.074 1340.2 550.336C1341.21 550.946 1342.08 551.784 1342.72 552.785C1344.44 555.578 1345.71 558.633 1346.46 561.832C1346.67 562.58 1346.87 563.338 1347.07 564.096C1347.72 566.632 1348.34 569.333 1349 572.074C1351.04 581.034 1353.59 592.189 1357.28 592.189C1360.97 592.189 1363.53 581.034 1365.57 572.074C1368.2 560.569 1370.68 549.724 1376.68 549.724C1382.69 549.724 1385.17 560.598 1387.79 572.074C1389.84 581.034 1392.39 592.189 1396.08 592.189C1399.76 592.189 1402.32 581.034 1404.37 572.074C1406.99 560.569 1409.47 549.724 1415.48 549.724C1421.48 549.724 1423.96 560.598 1426.59 572.074C1428.64 581.034 1431.19 592.189 1434.88 592.189H1435.34C1436.14 592.189 1436.79 592.842 1436.79 593.647C1436.79 594.452 1436.14 595.104 1435.34 595.104H1434.88C1428.88 595.104 1426.39 584.24 1423.77 572.754C1421.72 563.795 1419.18 552.639 1415.48 552.639C1411.78 552.639 1409.24 563.795 1407.19 572.754C1404.56 584.27 1402.09 595.104 1396.08 595.104C1390.07 595.104 1387.6 584.24 1384.97 572.754C1382.92 563.795 1380.37 552.639 1376.68 552.639C1372.99 552.639 1370.44 563.795 1368.4 572.754C1365.77 584.27 1363.29 595.104 1357.28 595.104C1351.28 595.104 1348.79 584.24 1346.17 572.754C1346.17 572.754 1344.9 568.187 1344.32 565.894C1342.57 558.965 1340.45 552.668 1337.67 552.668H1337.21C1336.82 552.681 1336.44 552.539 1336.16 552.272C1335.88 552.006 1335.72 551.637 1335.71 551.249Z" fill="#4285F4"/>
    </g>
    <mask id="mask1_263_213" style="mask-type:luminance" maskUnits="userSpaceOnUse" x="-8" y="0" width="1448" height="332">
        <path d="M1439.97 0H-8V332H1439.97V0Z" fill="white"/>
    </mask>
    <g mask="url(#mask1_263_213)">
        <path d="M1452 -9H4V322.638H1452V-9Z" fill="#F5F8FF"/>
        <path d="M1432 -8H-16V323.638H1432V-8Z" fill="#F5F8FF" fill-opacity="0.960784"/>
        <path d="M628.051 85.3434V40.8939H583.658V-3H582.548V40.8939H539.263V-3H538.154V40.8939H494.87V-3H493.76V40.8939H450.475V-3H449.365V40.8939H406.081V-3H404.972V40.8939H361.687V-3H360.577V40.8939H317.293V-3H316.184V40.8939H272.9V-3H271.789V40.8939H228.505V-3H227.395V40.8939H184.111V-3H183.001V40.8939H139.717V-3H139.162V42.0052H183.112V86.4546H227.395V175.353H360.577V219.803H672.446V85.3434H628.051ZM227.395 85.3434H184.222V42.0052H227.395V85.3434ZM271.789 174.242H228.505V130.904H271.789V174.242ZM271.789 129.793H228.505V86.4546H271.789V129.793ZM271.789 85.3434H228.616V42.0052H271.789V85.3434ZM316.184 174.242H272.9V130.904H316.184V174.242ZM316.184 129.793H272.9V86.4546H316.184V129.793ZM316.184 85.3434H272.9V42.0052H316.184V85.3434ZM360.577 174.242H317.293V130.904H360.577V174.242ZM360.577 129.793H317.293V86.4546H360.577V129.793ZM360.577 85.3434H317.293V42.0052H360.577V85.3434ZM404.972 218.692H361.687V175.353H404.972V218.692ZM404.972 174.242H361.687V130.904H404.972V174.242ZM404.972 129.793H361.687V86.4546H404.972V129.793ZM404.972 85.3434H361.687V42.0052H404.972V85.3434ZM449.365 218.692H406.081V175.353H449.365V218.692ZM449.365 174.242H406.081V130.904H449.365V174.242ZM449.365 129.793H406.081V86.4546H449.365V129.793ZM449.365 85.3434H406.081V42.0052H449.365V85.3434ZM493.76 218.692H450.475V175.353H493.76V218.692ZM493.76 174.242H450.475V130.904H493.76V174.242ZM493.76 129.793H450.475V86.4546H493.76V129.793ZM493.76 85.3434H450.475V42.0052H493.76V85.3434ZM538.154 218.692H494.87V175.353H538.154V218.692ZM538.154 174.242H494.87V130.904H538.154V174.242ZM538.154 129.793H494.87V86.4546H538.154V129.793ZM538.154 85.3434H494.87V42.0052H538.154V85.3434ZM582.548 218.692H539.263V175.353H582.548V218.692ZM582.548 174.242H539.263V130.904H582.548V174.242ZM582.548 129.793H539.263V86.4546H582.548V129.793ZM582.548 85.3434H539.263V42.0052H582.548V85.3434ZM626.942 218.692H583.658V175.353H626.942V218.692ZM626.942 174.242H583.658V130.904H626.942V174.242ZM626.942 129.793H583.658V86.4546H626.942V129.793ZM626.942 85.3434H583.658V42.0052H626.942V85.3434ZM671.336 218.692H628.051V175.353H671.336V218.692ZM671.336 174.242H628.051V130.904H671.336V174.242ZM671.336 129.793H628.051V86.4546H671.336V129.793Z" fill="#102D4B" fill-opacity="0.1"/>
        <path d="M1123.88 121.764H1114.05V153.881H1123.88V121.764ZM1105.53 108H1096.36V153.881H1105.53V108ZM1087.18 134.214H1078V153.881H1087.18V134.214Z" fill="#06284A" fill-opacity="0.25"/>
        <path d="M54 273.764H63.8337V305.881H54V273.764ZM72.3527 260H81.5296L81.5286 305.881H72.3527V260ZM90.7055 286.214H99.8813V305.881H90.7055V286.214Z" fill="#06284A" fill-opacity="0.25"/>
        <path d="M154.635 60.4205C154.635 59.6155 155.284 58.963 156.085 58.963C156.201 58.7977 157.438 58.963 157.661 58.963C158.177 59.061 158.674 59.2448 159.13 59.5071C160.145 60.1174 161.005 60.9555 161.643 61.9559C163.367 64.7492 164.631 67.8042 165.384 71.0028C165.597 71.7511 165.8 72.509 165.993 73.267C166.651 75.8033 167.269 78.5047 167.927 81.245C169.966 90.2045 172.519 101.36 176.211 101.36C179.904 101.36 182.456 90.2045 184.496 81.245C187.125 69.7396 189.61 58.8949 195.613 58.8949C201.616 58.8949 204.1 69.7687 206.72 81.245C208.769 90.2045 211.312 101.36 215.004 101.36C218.697 101.36 221.249 90.2045 223.299 81.245C225.918 69.7396 228.403 58.8949 234.406 58.8949C240.409 58.8949 242.893 69.7687 245.523 81.245C247.572 90.2045 250.115 101.36 253.807 101.36H254.271C255.073 101.36 255.721 102.013 255.721 102.818C255.721 103.622 255.073 104.275 254.271 104.275H253.807C247.804 104.275 245.32 93.4112 242.7 81.9252C240.651 72.9658 238.108 61.8102 234.406 61.8102C230.703 61.8102 228.171 72.9658 226.121 81.9252C223.492 93.4404 221.017 104.275 215.004 104.275C208.992 104.275 206.527 93.4112 203.897 81.9252C201.848 72.9658 199.306 61.8102 195.613 61.8102C191.92 61.8102 189.368 72.9658 187.328 81.9252C184.699 93.4404 182.214 104.275 176.211 104.275C170.208 104.275 167.724 93.4112 165.094 81.9252C165.094 81.9252 163.828 77.358 163.248 75.0647C161.498 68.1362 159.381 61.8393 156.597 61.8393H156.133C155.747 61.8523 155.371 61.71 155.09 61.4435C154.809 61.1771 154.645 60.8089 154.635 60.4205Z" fill="#4285F4"/>
    </g>
</svg>