<svg width="1440" height="613" viewBox="0 0 1440 613" fill="none" xmlns="http://www.w3.org/2000/svg">
<mask id="mask0_30_297" style="mask-type:luminance" maskUnits="userSpaceOnUse" x="-4" y="281" width="1448" height="332">
<path d="M1443.97 281H-4V613H1443.97V281Z" fill="white"/>
</mask>
<g mask="url(#mask0_30_297)">
<path d="M1440 330H-8V661.638H1440V330Z" fill="#081C30" fill-opacity="0.5"/>
<path d="M1440 328H-8V659.638H1440V328Z" fill="#081C30" fill-opacity="0.5"/>
<path d="M1353.89 593.459V637.909H1309.49V681.803H1308.39V637.909H1265.11V681.803H1263.99V637.909H1220.71V681.803H1219.6V637.909H1176.31V681.803H1175.2V637.909H1131.92V681.803H1130.81V637.909H1087.53V681.803H1086.42V637.909H1043.13V681.803H1042.02V637.909H998.737V681.803H997.627V637.909H954.343V681.803H953.233V637.909H909.949V681.803H908.839V637.909H865.555V681.803H865V636.798H908.95V592.348H953.233V503.449H1086.42V459H1398.28V593.459H1353.89ZM953.233 593.459H910.06V636.798H953.233V593.459ZM997.627 504.561H954.343V547.899H997.627V504.561ZM997.627 549.01H954.343V592.348H997.627V549.01ZM997.627 593.459H954.454V636.798H997.627V593.459ZM1042.02 504.561H998.737V547.899H1042.02V504.561ZM1042.02 549.01H998.737V592.348H1042.02V549.01ZM1042.02 593.459H998.737V636.798H1042.02V593.459ZM1086.42 504.561H1043.13V547.899H1086.42V504.561ZM1086.42 549.01H1043.13V592.348H1086.42V549.01ZM1086.42 593.459H1043.13V636.798H1086.42V593.459ZM1130.81 460.111H1087.53V503.449H1130.81V460.111ZM1130.81 504.561H1087.53V547.899H1130.81V504.561ZM1130.81 549.01H1087.53V592.348H1130.81V549.01ZM1130.81 593.459H1087.53V636.798H1130.81V593.459ZM1175.2 460.111H1131.92V503.449H1175.2V460.111ZM1175.2 504.561H1131.92V547.899H1175.2V504.561ZM1175.2 549.01H1131.92V592.348H1175.2V549.01ZM1175.2 593.459H1131.92V636.798H1175.2V593.459ZM1219.6 460.111H1176.31V503.449H1219.6V460.111ZM1219.6 504.561H1176.31V547.899H1219.6V504.561ZM1219.6 549.01H1176.31V592.348H1219.6V549.01ZM1219.6 593.459H1176.31V636.798H1219.6V593.459ZM1263.99 460.111H1220.71V503.449H1263.99V460.111ZM1263.99 504.561H1220.71V547.899H1263.99V504.561ZM1263.99 549.01H1220.71V592.348H1263.99V549.01ZM1263.99 593.459H1220.71V636.798H1263.99V593.459ZM1308.39 460.111H1265.11V503.449H1308.39V460.111ZM1308.39 504.561H1265.11V547.899H1308.39V504.561ZM1308.39 549.01H1265.11V592.348H1308.39V549.01ZM1308.39 593.459H1265.11V636.798H1308.39V593.459ZM1352.78 460.111H1309.49V503.449H1352.78V460.111ZM1352.78 504.561H1309.49V547.899H1352.78V504.561ZM1352.78 549.01H1309.49V592.348H1352.78V549.01ZM1352.78 593.459H1309.49V636.798H1352.78V593.459ZM1397.18 460.111H1353.89V503.449H1397.18V460.111ZM1397.18 504.561H1353.89V547.899H1397.18V504.561ZM1397.18 549.01H1353.89V592.348H1397.18V549.01Z" fill="#102D4B" fill-opacity="0.5"/>
<path d="M399.885 602.459V646.909H355.491V690.803H354.389V646.909H311.106V690.803H309.994V646.909H266.708V690.803H265.598V646.909H222.313V690.803H221.203V646.909H177.919V690.803H176.81V646.909H133.525V690.803H132.415V646.909H89.131V690.803H88.0219V646.909H44.7375V690.803H43.6274V646.909H0.343002V690.803H-0.767105V646.909H-44.0515V690.803H-45.1606V646.909H-88.4449V690.803H-89V645.798H-45.0504V601.348H-0.767105V512.449H132.415V468H444.279V602.459H399.885ZM-0.767105 602.459H-43.9403V645.798H-0.767105V602.459ZM43.6274 513.561H0.343002V556.899H43.6274V513.561ZM43.6274 558.01H0.343002V601.348H43.6274V558.01ZM43.6274 602.459H0.454243V645.798H43.6274V602.459ZM88.0219 513.561H44.7375V556.899H88.0219V513.561ZM88.0219 558.01H44.7375V601.348H88.0219V558.01ZM88.0219 602.459H44.7375V645.798H88.0219V602.459ZM132.415 513.561H89.131V556.899H132.415V513.561ZM132.415 558.01H89.131V601.348H132.415V558.01ZM132.415 602.459H89.131V645.798H132.415V602.459ZM176.81 469.111H133.525V512.449H176.81V469.111ZM176.81 513.561H133.525V556.899H176.81V513.561ZM176.81 558.01H133.525V601.348H176.81V558.01ZM176.81 602.459H133.525V645.798H176.81V602.459ZM221.203 469.111H177.919V512.449H221.203V469.111ZM221.203 513.561H177.919V556.899H221.203V513.561ZM221.203 558.01H177.919V601.348H221.203V558.01ZM221.203 602.459H177.919V645.798H221.203V602.459ZM265.598 469.111H222.313V512.449H265.598V469.111ZM265.598 513.561H222.313V556.899H265.598V513.561ZM265.598 558.01H222.313V601.348H265.598V558.01ZM265.598 602.459H222.313V645.798H265.598V602.459ZM309.994 469.111H266.708V512.449H309.994V469.111ZM309.994 513.561H266.708V556.899H309.994V513.561ZM309.994 558.01H266.708V601.348H309.994V558.01ZM309.994 602.459H266.708V645.798H309.994V602.459ZM354.389 469.111H311.106V512.449H354.389V469.111ZM354.389 513.561H311.106V556.899H354.389V513.561ZM354.389 558.01H311.106V601.348H354.389V558.01ZM354.389 602.459H311.106V645.798H354.389V602.459ZM398.783 469.111H355.491V512.449H398.783V469.111ZM398.783 513.561H355.491V556.899H398.783V513.561ZM398.783 558.01H355.491V601.348H398.783V558.01ZM398.783 602.459H355.491V645.798H398.783V602.459ZM443.178 469.111H399.885V512.449H443.178V469.111ZM443.178 513.561H399.885V556.899H443.178V513.561ZM443.178 558.01H399.885V601.348H443.178V558.01Z" fill="#102D4B" fill-opacity="0.5"/>
<path d="M1233.72 487.995H1243.55V520.112H1233.72V487.995ZM1252.07 474.23H1261.24V520.112H1252.07V474.23ZM1270.42 500.444H1279.6V520.112H1270.42V500.444Z" fill="#06284A"/>
<path d="M351 481.531C351 480.726 351.649 480.073 352.45 480.073C352.566 479.908 353.803 480.073 354.026 480.073C354.542 480.171 355.039 480.355 355.495 480.618C356.51 481.228 357.37 482.066 358.008 483.066C359.733 485.86 360.996 488.915 361.75 492.113C361.962 492.862 362.165 493.619 362.359 494.377C363.016 496.914 363.635 499.615 364.292 502.355C366.332 511.315 368.884 522.471 372.576 522.471C376.269 522.471 378.821 511.315 380.861 502.355C383.49 490.85 385.975 480.005 391.978 480.005C397.981 480.005 400.465 490.879 403.085 502.355C405.135 511.315 407.677 522.471 411.37 522.471C415.062 522.471 417.614 511.315 419.664 502.355C422.284 490.85 424.768 480.005 430.771 480.005C436.774 480.005 439.259 490.879 441.888 502.355C443.938 511.315 446.48 522.471 450.172 522.471H450.636C451.438 522.471 452.086 523.123 452.086 523.928C452.086 524.733 451.438 525.385 450.636 525.385H450.172C444.17 525.385 441.685 514.522 439.065 503.036C437.016 494.076 434.474 482.921 430.771 482.921C427.069 482.921 424.536 494.076 422.487 503.036C419.857 514.551 417.383 525.385 411.37 525.385C405.357 525.385 402.892 514.522 400.262 503.036C398.213 494.076 395.671 482.921 391.978 482.921C388.285 482.921 385.733 494.076 383.693 503.036C381.064 514.551 378.58 525.385 372.576 525.385C366.573 525.385 364.089 514.522 361.46 503.036C361.46 503.036 360.193 498.468 359.613 496.175C357.863 489.247 355.746 482.95 352.962 482.95H352.498C352.112 482.963 351.737 482.82 351.455 482.554C351.174 482.288 351.01 481.919 351 481.531Z" fill="#3DDC84"/>
<path d="M1331.71 557.249C1331.71 556.444 1332.36 555.792 1333.15 555.792C1333.27 555.627 1334.51 555.792 1334.73 555.792C1335.25 555.89 1335.75 556.074 1336.2 556.336C1337.21 556.946 1338.08 557.784 1338.72 558.785C1340.44 561.578 1341.71 564.633 1342.46 567.832C1342.67 568.58 1342.87 569.338 1343.07 570.096C1343.72 572.632 1344.34 575.333 1345 578.074C1347.04 587.034 1349.59 598.189 1353.28 598.189C1356.97 598.189 1359.53 587.034 1361.57 578.074C1364.2 566.569 1366.68 555.724 1372.68 555.724C1378.69 555.724 1381.17 566.598 1383.79 578.074C1385.84 587.034 1388.39 598.189 1392.08 598.189C1395.76 598.189 1398.32 587.034 1400.37 578.074C1402.99 566.569 1405.47 555.724 1411.48 555.724C1417.48 555.724 1419.96 566.598 1422.59 578.074C1424.64 587.034 1427.19 598.189 1430.88 598.189H1431.34C1432.14 598.189 1432.79 598.842 1432.79 599.647C1432.79 600.452 1432.14 601.104 1431.34 601.104H1430.88C1424.88 601.104 1422.39 590.24 1419.77 578.754C1417.72 569.795 1415.18 558.639 1411.48 558.639C1407.78 558.639 1405.24 569.795 1403.19 578.754C1400.56 590.27 1398.09 601.104 1392.08 601.104C1386.07 601.104 1383.6 590.24 1380.97 578.754C1378.92 569.795 1376.37 558.639 1372.68 558.639C1368.99 558.639 1366.44 569.795 1364.4 578.754C1361.77 590.27 1359.29 601.104 1353.28 601.104C1347.28 601.104 1344.79 590.24 1342.17 578.754C1342.17 578.754 1340.9 574.187 1340.32 571.894C1338.57 564.965 1336.45 558.668 1333.67 558.668H1333.21C1332.82 558.681 1332.44 558.539 1332.16 558.272C1331.88 558.006 1331.72 557.637 1331.71 557.249Z" fill="#4285F4"/>
</g>
<mask id="mask1_30_297" style="mask-type:luminance" maskUnits="userSpaceOnUse" x="-8" y="0" width="1448" height="332">
<path d="M1439.97 0H-8V332H1439.97V0Z" fill="white"/>
</mask>
<g mask="url(#mask1_30_297)">
<path d="M1440 -2H-8V329.638H1440V-2Z" fill="#081C30" fill-opacity="0.5"/>
<path d="M1432 0H-16V331.638H1432V0Z" fill="#081C30" fill-opacity="0.5"/>
<path d="M628.051 85.3434V40.8939H583.658V-3H582.547V40.8939H539.263V-3H538.154V40.8939H494.87V-3H493.76V40.8939H450.475V-3H449.365V40.8939H406.081V-3H404.972V40.8939H361.687V-3H360.577V40.8939H317.293V-3H316.184V40.8939H272.899V-3H271.789V40.8939H228.505V-3H227.395V40.8939H184.111V-3H183.001V40.8939H139.717V-3H139.162V42.0052H183.112V86.4546H227.395V175.353H360.577V219.803H672.445V85.3434H628.051ZM227.395 85.3434H184.222V42.0052H227.395V85.3434ZM271.789 174.242H228.505V130.904H271.789V174.242ZM271.789 129.793H228.505V86.4546H271.789V129.793ZM271.789 85.3434H228.616V42.0052H271.789V85.3434ZM316.184 174.242H272.899V130.904H316.184V174.242ZM316.184 129.793H272.899V86.4546H316.184V129.793ZM316.184 85.3434H272.899V42.0052H316.184V85.3434ZM360.577 174.242H317.293V130.904H360.577V174.242ZM360.577 129.793H317.293V86.4546H360.577V129.793ZM360.577 85.3434H317.293V42.0052H360.577V85.3434ZM404.972 218.692H361.687V175.353H404.972V218.692ZM404.972 174.242H361.687V130.904H404.972V174.242ZM404.972 129.793H361.687V86.4546H404.972V129.793ZM404.972 85.3434H361.687V42.0052H404.972V85.3434ZM449.365 218.692H406.081V175.353H449.365V218.692ZM449.365 174.242H406.081V130.904H449.365V174.242ZM449.365 129.793H406.081V86.4546H449.365V129.793ZM449.365 85.3434H406.081V42.0052H449.365V85.3434ZM493.76 218.692H450.475V175.353H493.76V218.692ZM493.76 174.242H450.475V130.904H493.76V174.242ZM493.76 129.793H450.475V86.4546H493.76V129.793ZM493.76 85.3434H450.475V42.0052H493.76V85.3434ZM538.154 218.692H494.87V175.353H538.154V218.692ZM538.154 174.242H494.87V130.904H538.154V174.242ZM538.154 129.793H494.87V86.4546H538.154V129.793ZM538.154 85.3434H494.87V42.0052H538.154V85.3434ZM582.547 218.692H539.263V175.353H582.547V218.692ZM582.547 174.242H539.263V130.904H582.547V174.242ZM582.547 129.793H539.263V86.4546H582.547V129.793ZM582.547 85.3434H539.263V42.0052H582.547V85.3434ZM626.942 218.692H583.658V175.353H626.942V218.692ZM626.942 174.242H583.658V130.904H626.942V174.242ZM626.942 129.793H583.658V86.4546H626.942V129.793ZM626.942 85.3434H583.658V42.0052H626.942V85.3434ZM671.335 218.692H628.051V175.353H671.335V218.692ZM671.335 174.242H628.051V130.904H671.335V174.242ZM671.335 129.793H628.051V86.4546H671.335V129.793Z" fill="#102D4B" fill-opacity="0.5"/>
<path d="M1123.88 121.764H1114.05V153.881H1123.88V121.764ZM1105.53 108H1096.36V153.881H1105.53V108ZM1087.18 134.214H1078V153.881H1087.18V134.214Z" fill="#06284A"/>
<path d="M54 273.764H63.8337V305.881H54V273.764ZM72.3527 260H81.5296L81.5286 305.881H72.3527V260ZM90.7055 286.214H99.8813V305.881H90.7055V286.214Z" fill="#06284A"/>
<path d="M154.635 60.4205C154.635 59.6155 155.284 58.963 156.085 58.963C156.201 58.7977 157.438 58.963 157.66 58.963C158.177 59.061 158.673 59.2448 159.13 59.5071C160.144 60.1174 161.005 60.9555 161.643 61.9559C163.367 64.7492 164.63 67.8042 165.384 71.0028C165.597 71.7511 165.8 72.509 165.993 73.267C166.651 75.8033 167.269 78.5047 167.927 81.245C169.966 90.2045 172.518 101.36 176.211 101.36C179.904 101.36 182.456 90.2045 184.496 81.245C187.125 69.7396 189.609 58.8949 195.613 58.8949C201.616 58.8949 204.1 69.7687 206.72 81.245C208.769 90.2045 211.312 101.36 215.004 101.36C218.697 101.36 221.249 90.2045 223.299 81.245C225.918 69.7396 228.403 58.8949 234.406 58.8949C240.409 58.8949 242.893 69.7687 245.523 81.245C247.572 90.2045 250.115 101.36 253.807 101.36H254.271C255.072 101.36 255.721 102.013 255.721 102.818C255.721 103.622 255.072 104.275 254.271 104.275H253.807C247.804 104.275 245.32 93.4112 242.7 81.9252C240.651 72.9658 238.108 61.8102 234.406 61.8102C230.703 61.8102 228.171 72.9658 226.121 81.9252C223.492 93.4404 221.017 104.275 215.004 104.275C208.992 104.275 206.527 93.4112 203.897 81.9252C201.848 72.9658 199.305 61.8102 195.613 61.8102C191.92 61.8102 189.368 72.9658 187.328 81.9252C184.699 93.4404 182.214 104.275 176.211 104.275C170.208 104.275 167.724 93.4112 165.094 81.9252C165.094 81.9252 163.828 77.358 163.248 75.0647C161.498 68.1362 159.381 61.8393 156.597 61.8393H156.133C155.747 61.8523 155.371 61.71 155.09 61.4435C154.809 61.1771 154.645 60.8089 154.635 60.4205Z" fill="#4285F4"/>
</g>
</svg>
