<svg width="700" height="947" viewBox="0 0 700 947" fill="none" xmlns="http://www.w3.org/2000/svg">
<mask id="mask0_167_429" style="mask-type:luminance" maskUnits="userSpaceOnUse" x="0" y="283" width="702" height="332">
<path d="M702 283H0V615H702V283Z" fill="white"/>
</mask>
<g mask="url(#mask0_167_429)">
<path d="M705.021 323H-4.02881V655H705.021V323Z" fill="#081C30" fill-opacity="0.5"/>
<path d="M714.086 322H-4.02881V654H714.086V322Z" fill="#081C30" fill-opacity="0.5"/>
<path d="M406.782 596.459V640.909H362.069V684.803H360.96V640.909H317.367V684.803H316.247V640.909H272.65V684.803H271.532V640.909H227.937V684.803H226.819V640.909H183.224V684.803H182.107V640.909H138.512V684.803H137.394V640.909H93.7989V684.803H92.6819V640.909H49.087V684.803H47.9689V640.909H4.37406V684.803H3.25599V640.909H-40.3389V684.803H-41.4559V640.909H-85.0508V684.803H-85.6099V639.798H-41.345V595.348H3.25599V506.449H137.394V462H451.495V596.459H406.782ZM3.25599 596.459H-40.2269V639.798H3.25599V596.459ZM47.9689 507.561H4.37406V550.899H47.9689V507.561ZM47.9689 552.01H4.37406V595.348H47.9689V552.01ZM47.9689 596.459H4.4861V639.798H47.9689V596.459ZM92.6819 507.561H49.087V550.899H92.6819V507.561ZM92.6819 552.01H49.087V595.348H92.6819V552.01ZM92.6819 596.459H49.087V639.798H92.6819V596.459ZM137.394 507.561H93.7989V550.899H137.394V507.561ZM137.394 552.01H93.7989V595.348H137.394V552.01ZM137.394 596.459H93.7989V639.798H137.394V596.459ZM182.107 463.111H138.512V506.449H182.107V463.111ZM182.107 507.561H138.512V550.899H182.107V507.561ZM182.107 552.01H138.512V595.348H182.107V552.01ZM182.107 596.459H138.512V639.798H182.107V596.459ZM226.819 463.111H183.224V506.449H226.819V463.111ZM226.819 507.561H183.224V550.899H226.819V507.561ZM226.819 552.01H183.224V595.348H226.819V552.01ZM226.819 596.459H183.224V639.798H226.819V596.459ZM271.532 463.111H227.937V506.449H271.532V463.111ZM271.532 507.561H227.937V550.899H271.532V507.561ZM271.532 552.01H227.937V595.348H271.532V552.01ZM271.532 596.459H227.937V639.798H271.532V596.459ZM316.247 463.111H272.65V506.449H316.247V463.111ZM316.247 507.561H272.65V550.899H316.247V507.561ZM316.247 552.01H272.65V595.348H316.247V552.01ZM316.247 596.459H272.65V639.798H316.247V596.459ZM360.96 463.111H317.367V506.449H360.96V463.111ZM360.96 507.561H317.367V550.899H360.96V507.561ZM360.96 552.01H317.367V595.348H360.96V552.01ZM360.96 596.459H317.367V639.798H360.96V596.459ZM405.673 463.111H362.069V506.449H405.673V463.111ZM405.673 507.561H362.069V550.899H405.673V507.561ZM405.673 552.01H362.069V595.348H405.673V552.01ZM405.673 596.459H362.069V639.798H405.673V596.459ZM450.386 463.111H406.782V506.449H450.386V463.111ZM450.386 507.561H406.782V550.899H450.386V507.561ZM450.386 552.01H406.782V595.348H450.386V552.01Z" fill="#102D4B" fill-opacity="0.5"/>
<path d="M554 350.531C554 349.726 554.654 349.073 555.46 349.073C555.577 348.908 556.824 349.073 557.047 349.073C557.568 349.171 558.068 349.355 558.527 349.618C559.549 350.228 560.416 351.066 561.059 352.066C562.795 354.86 564.068 357.915 564.827 361.113C565.041 361.862 565.245 362.619 565.44 363.377C566.102 365.914 566.725 368.615 567.387 371.355C569.442 380.315 572.012 391.471 575.731 391.471C579.451 391.471 582.021 380.315 584.075 371.355C586.724 359.85 589.226 349.005 595.272 349.005C601.318 349.005 603.82 359.879 606.459 371.355C608.523 380.315 611.084 391.471 614.803 391.471C618.522 391.471 621.092 380.315 623.156 371.355C625.795 359.85 628.297 349.005 634.343 349.005C640.39 349.005 642.892 359.879 645.54 371.355C647.604 380.315 650.165 391.471 653.884 391.471H654.351C655.158 391.471 655.811 392.123 655.811 392.928C655.811 393.733 655.158 394.385 654.351 394.385H653.884C647.838 394.385 645.335 383.522 642.697 372.036C640.633 363.076 638.072 351.921 634.343 351.921C630.614 351.921 628.064 363.076 625.999 372.036C623.351 383.551 620.859 394.385 614.803 394.385C608.747 394.385 606.264 383.522 603.616 372.036C601.552 363.076 598.991 351.921 595.272 351.921C591.553 351.921 588.982 363.076 586.928 372.036C584.28 383.551 581.778 394.385 575.731 394.385C569.685 394.385 567.183 383.522 564.535 372.036C564.535 372.036 563.259 367.468 562.675 365.175C560.913 358.247 558.781 351.95 555.977 351.95H555.509C555.12 351.963 554.742 351.82 554.459 351.554C554.175 351.288 554.01 350.919 554 350.531Z" fill="#3DDC84"/>
</g>
<mask id="mask1_167_429" style="mask-type:luminance" maskUnits="userSpaceOnUse" x="-14" y="0" width="716" height="332">
<path d="M702 0H-14V332H702V0Z" fill="white"/>
</mask>
<g mask="url(#mask1_167_429)">
<path d="M704.031 -9H-1.81274V323H704.031V-9Z" fill="#081C30" fill-opacity="0.5"/>
<path d="M970.248 -8H-22.0676V324H970.248V-8Z" fill="#081C30" fill-opacity="0.5"/>
<path d="M631.975 85.3434V40.8939H586.889V-3H585.762V40.8939H541.802V-3H540.676V40.8939H496.716V-3H495.588V40.8939H451.629V-3H450.501V40.8939H406.542V-3H405.415V40.8939H361.455V-3H360.328V40.8939H316.368V-3H315.242V40.8939H271.282V-3H270.155V40.8939H226.195V-3H225.068V40.8939H181.108V-3H179.981V40.8939H136.022V-3H135.458V42.0052H180.094V86.4546H225.068V175.353H360.328V219.803H677.062V85.3434H631.975ZM225.068 85.3434H181.221V42.0052H225.068V85.3434ZM270.155 174.242H226.195V130.904H270.155V174.242ZM270.155 129.793H226.195V86.4546H270.155V129.793ZM270.155 85.3434H226.308V42.0052H270.155V85.3434ZM315.242 174.242H271.282V130.904H315.242V174.242ZM315.242 129.793H271.282V86.4546H315.242V129.793ZM315.242 85.3434H271.282V42.0052H315.242V85.3434ZM360.328 174.242H316.368V130.904H360.328V174.242ZM360.328 129.793H316.368V86.4546H360.328V129.793ZM360.328 85.3434H316.368V42.0052H360.328V85.3434ZM405.415 218.692H361.455V175.353H405.415V218.692ZM405.415 174.242H361.455V130.904H405.415V174.242ZM405.415 129.793H361.455V86.4546H405.415V129.793ZM405.415 85.3434H361.455V42.0052H405.415V85.3434ZM450.501 218.692H406.542V175.353H450.501V218.692ZM450.501 174.242H406.542V130.904H450.501V174.242ZM450.501 129.793H406.542V86.4546H450.501V129.793ZM450.501 85.3434H406.542V42.0052H450.501V85.3434ZM495.588 218.692H451.629V175.353H495.588V218.692ZM495.588 174.242H451.629V130.904H495.588V174.242ZM495.588 129.793H451.629V86.4546H495.588V129.793ZM495.588 85.3434H451.629V42.0052H495.588V85.3434ZM540.676 218.692H496.716V175.353H540.676V218.692ZM540.676 174.242H496.716V130.904H540.676V174.242ZM540.676 129.793H496.716V86.4546H540.676V129.793ZM540.676 85.3434H496.716V42.0052H540.676V85.3434ZM585.762 218.692H541.802V175.353H585.762V218.692ZM585.762 174.242H541.802V130.904H585.762V174.242ZM585.762 129.793H541.802V86.4546H585.762V129.793ZM585.762 85.3434H541.802V42.0052H585.762V85.3434ZM630.849 218.692H586.889V175.353H630.849V218.692ZM630.849 174.242H586.889V130.904H630.849V174.242ZM630.849 129.793H586.889V86.4546H630.849V129.793ZM630.849 85.3434H586.889V42.0052H630.849V85.3434ZM675.935 218.692H631.975V175.353H675.935V218.692ZM675.935 174.242H631.975V130.904H675.935V174.242ZM675.935 129.793H631.975V86.4546H675.935V129.793Z" fill="#102D4B" fill-opacity="0.5"/>
<path d="M48.9673 273.764H58.9544V305.881H48.9673V273.764ZM67.6064 260H76.9264L76.9254 305.881H67.6064V260ZM86.2454 286.214H95.5645V305.881H86.2454V286.214Z" fill="#06284A"/>
<path d="M97.938 58.531C97.938 57.726 98.5973 57.0734 99.4107 57.0734C99.5285 56.9082 100.785 57.0734 101.011 57.0734C101.535 57.1715 102.04 57.3553 102.503 57.6176C103.534 58.2279 104.407 59.066 105.056 60.0664C106.807 62.8596 108.09 65.9147 108.855 69.1133C109.071 69.8616 109.277 70.6195 109.474 71.3775C110.141 73.9138 110.77 76.6152 111.437 79.3555C113.509 88.3149 116.101 99.4705 119.851 99.4705C123.602 99.4705 126.193 88.3149 128.265 79.3555C130.935 67.85 133.458 57.0054 139.555 57.0054C145.652 57.0054 148.175 67.8792 150.836 79.3555C152.917 88.3149 155.499 99.4705 159.25 99.4705C163 99.4705 165.592 88.3149 167.673 79.3555C170.334 67.85 172.857 57.0054 178.954 57.0054C185.051 57.0054 187.574 67.8792 190.245 79.3555C192.326 88.3149 194.908 99.4707 198.658 99.4707H199.129C199.943 99.4707 200.601 100.123 200.601 100.928C200.601 101.733 199.943 102.385 199.129 102.385H198.658C192.561 102.385 190.038 91.5217 187.377 80.0357C185.296 71.0762 182.714 59.9206 178.954 59.9206C175.194 59.9206 172.621 71.0762 170.54 80.0357C167.87 91.5509 165.356 102.385 159.25 102.385C153.143 102.385 150.64 91.5217 147.969 80.0357C145.888 71.0762 143.306 59.9206 139.555 59.9206C135.805 59.9206 133.213 71.0762 131.142 80.0357C128.471 91.5509 125.948 102.385 119.851 102.385C113.754 102.385 111.231 91.5217 108.561 80.0357C108.561 80.0357 107.275 75.4685 106.686 73.1752C104.909 66.2467 102.759 59.9498 99.9311 59.9498H99.4597C99.0675 59.9628 98.6862 59.8204 98.4005 59.554C98.1147 59.2876 97.9482 58.9194 97.938 58.531Z" fill="#4285F4"/>
</g>
<mask id="mask2_167_429" style="mask-type:luminance" maskUnits="userSpaceOnUse" x="-2" y="615" width="704" height="332">
<path d="M702 947H-1.97754V615H702V947Z" fill="white"/>
</mask>
<g mask="url(#mask2_167_429)">
<path d="M705.03 907H-6.01758V575H705.03V907Z" fill="#081C30" fill-opacity="0.5"/>
<path d="M706.04 908H-6.01758V576H706.04V908Z" fill="#081C30" fill-opacity="0.5"/>
<path d="M409.991 634.541V590.091H365.152V546.197H364.039V590.091H320.324V546.197H319.2V590.091H275.48V546.197H274.359V590.091H230.641V546.197H229.52V590.091H185.803V546.197H184.682V590.091H140.965V546.197H139.843V590.091H96.1259V546.197H95.0057V590.091H51.288V546.197H50.1668V590.091H6.44907V546.197H5.32785V590.091H-38.3898V546.197H-39.51V590.091H-83.2277V546.197H-83.7883V591.202H-39.3988V635.652H5.32785V724.551H139.843V769H454.83V634.541H409.991ZM5.32785 634.541H-38.2776V591.202H5.32785V634.541ZM50.1668 723.439H6.44907V680.101H50.1668V723.439ZM50.1668 678.99H6.44907V635.652H50.1668V678.99ZM50.1668 634.541H6.56142V591.202H50.1668V634.541ZM95.0057 723.439H51.288V680.101H95.0057V723.439ZM95.0057 678.99H51.288V635.652H95.0057V678.99ZM95.0057 634.541H51.288V591.202H95.0057V634.541ZM139.843 723.439H96.1259V680.101H139.843V723.439ZM139.843 678.99H96.1259V635.652H139.843V678.99ZM139.843 634.541H96.1259V591.202H139.843V634.541ZM184.682 767.889H140.965V724.551H184.682V767.889ZM184.682 723.439H140.965V680.101H184.682V723.439ZM184.682 678.99H140.965V635.652H184.682V678.99ZM184.682 634.541H140.965V591.202H184.682V634.541ZM229.52 767.889H185.803V724.551H229.52V767.889ZM229.52 723.439H185.803V680.101H229.52V723.439ZM229.52 678.99H185.803V635.652H229.52V678.99ZM229.52 634.541H185.803V591.202H229.52V634.541ZM274.359 767.889H230.641V724.551H274.359V767.889ZM274.359 723.439H230.641V680.101H274.359V723.439ZM274.359 678.99H230.641V635.652H274.359V678.99ZM274.359 634.541H230.641V591.202H274.359V634.541ZM319.2 767.889H275.48V724.551H319.2V767.889ZM319.2 723.439H275.48V680.101H319.2V723.439ZM319.2 678.99H275.48V635.652H319.2V678.99ZM319.2 634.541H275.48V591.202H319.2V634.541ZM364.039 767.889H320.324V724.551H364.039V767.889ZM364.039 723.439H320.324V680.101H364.039V723.439ZM364.039 678.99H320.324V635.652H364.039V678.99ZM364.039 634.541H320.324V591.202H364.039V634.541ZM408.878 767.889H365.152V724.551H408.878V767.889ZM408.878 723.439H365.152V680.101H408.878V723.439ZM408.878 678.99H365.152V635.652H408.878V678.99ZM408.878 634.541H365.152V591.202H408.878V634.541ZM453.717 767.889H409.991V724.551H453.717V767.889ZM453.717 723.439H409.991V680.101H453.717V723.439ZM453.717 678.99H409.991V635.652H453.717V678.99Z" fill="#102D4B" fill-opacity="0.5"/>
<path d="M200.442 841.854C200.442 842.659 201.097 843.312 201.906 843.312C202.023 843.477 203.273 843.312 203.498 843.312C204.019 843.214 204.521 843.03 204.982 842.768C206.007 842.158 206.876 841.319 207.52 840.319C209.262 837.526 210.538 834.471 211.299 831.272C211.514 830.524 211.719 829.766 211.914 829.008C212.578 826.472 213.203 823.77 213.867 821.03C215.927 812.07 218.504 800.915 222.234 800.915C225.964 800.915 228.541 812.07 230.602 821.03C233.257 832.535 235.767 843.38 241.83 843.38C247.893 843.38 250.402 832.506 253.048 821.03C255.118 812.07 257.686 800.915 261.416 800.915C265.145 800.915 267.723 812.07 269.793 821.03C272.439 832.535 274.948 843.38 281.011 843.38C287.075 843.38 289.584 832.506 292.24 821.03C294.31 812.07 296.878 800.915 300.607 800.915H301.075C301.885 800.915 302.54 800.262 302.54 799.457C302.54 798.653 301.885 798 301.075 798H300.607C294.544 798 292.034 808.864 289.389 820.35C287.319 829.309 284.751 840.465 281.011 840.465C277.272 840.465 274.714 829.309 272.644 820.35C269.988 808.834 267.489 798 261.416 798C255.343 798 252.853 808.864 250.197 820.35C248.127 829.309 245.56 840.465 241.83 840.465C238.1 840.465 235.523 829.309 233.462 820.35C230.807 808.834 228.297 798 222.234 798C216.171 798 213.662 808.864 211.006 820.35C211.006 820.35 209.727 824.917 209.141 827.21C207.374 834.139 205.236 840.436 202.424 840.436H201.955C201.565 840.423 201.186 840.565 200.902 840.831C200.617 841.098 200.452 841.466 200.442 841.854Z" fill="#3DDC84"/>
</g>
</svg>
