<svg width="47" height="29" viewBox="0 0 47 29" fill="none" xmlns="http://www.w3.org/2000/svg">
<path d="M46.8687 27.044C46.8534 26.9478 46.8387 26.8527 46.8226 26.7576C46.7256 26.1675 46.6048 25.5843 46.4644 25.0091C46.218 24.0043 45.9079 23.0235 45.5379 22.0737C45.225 21.2693 44.8689 20.4867 44.4737 19.7282C43.9654 18.7543 43.3921 17.8194 42.7588 16.9302C41.9824 15.8406 41.1151 14.8197 40.1683 13.8791C39.771 13.4837 39.3597 13.1022 38.9352 12.7366C38.0156 11.9427 37.0332 11.2197 35.9983 10.5735C36.0074 10.5585 36.0151 10.5425 36.0242 10.5276C36.4983 9.7084 36.9738 8.89026 37.4479 8.07107C37.9116 7.27129 38.3752 6.47151 38.8388 5.67181C39.1726 5.09777 39.5057 4.52255 39.8373 3.94852C39.9162 3.81215 39.9784 3.67125 40.0252 3.52692C40.155 3.12472 40.1606 2.70193 40.0566 2.30889C40.0301 2.21155 39.9979 2.11645 39.9588 2.02365C39.9197 1.93078 39.8743 1.84029 39.8227 1.75322C39.6453 1.45534 39.3919 1.19636 39.0734 1.00728C38.7921 0.840045 38.4771 0.740335 38.1546 0.711706C38.0191 0.700255 37.8829 0.701372 37.7475 0.715128C37.6357 0.726579 37.5247 0.747247 37.4144 0.775876C37.022 0.880125 36.6575 1.09554 36.374 1.40716C36.2721 1.51944 36.1799 1.64324 36.101 1.77954C35.7679 2.35357 35.4349 2.92879 35.1025 3.50283L33.7116 5.90209C33.2375 6.72135 32.762 7.53942 32.2878 8.35868C32.2362 8.44798 32.1838 8.53736 32.1321 8.62792C32.0602 8.59922 31.989 8.5706 31.9171 8.54308C29.3028 7.54626 26.4665 7.00093 23.5017 7.00093C23.4207 7.00093 23.3404 7.00093 23.2588 7.00204C20.6229 7.02837 18.0903 7.4867 15.7274 8.30938C15.4544 8.40448 15.1842 8.50531 14.916 8.61075C14.8679 8.52709 14.8183 8.44344 14.7708 8.35979C14.2967 7.54054 13.8212 6.72246 13.3471 5.90321C12.8834 5.1035 12.4198 4.30372 11.9562 3.50394C11.6224 2.92991 11.2893 2.35476 10.9577 1.78073C10.8781 1.64436 10.7866 1.52063 10.6846 1.40835C10.4012 1.09665 10.0367 0.881242 9.64425 0.776993C9.53393 0.748365 9.4229 0.727766 9.31048 0.716315C9.17572 0.702559 9.03956 0.701372 8.9041 0.712824C8.58151 0.740335 8.2666 0.840045 7.9845 1.00846C7.6661 1.19748 7.41473 1.45646 7.23598 1.75434C7.18431 1.84141 7.13822 1.93197 7.09982 2.02477C7.06071 2.11757 7.0272 2.21267 7.00207 2.31007C6.89803 2.70305 6.90361 3.12584 7.03279 3.52803C7.08027 3.67243 7.14172 3.81334 7.22062 3.94971C7.55438 4.52374 7.88745 5.09889 8.21912 5.67292C8.68345 6.4727 9.14709 7.27248 9.61073 8.07218C10.0848 8.89144 10.5597 9.70951 11.0338 10.5288C11.0373 10.5356 11.0421 10.5425 11.0456 10.5494C10.089 11.1441 9.17922 11.8029 8.32037 12.5235C7.80576 12.9555 7.31 13.4081 6.83518 13.8813C5.88905 14.822 5.02252 15.8429 4.24466 16.9325C3.61065 17.8217 3.03669 18.7554 2.52976 19.7305C2.13455 20.489 1.77845 21.2716 1.46563 22.076C1.09556 23.0258 0.785531 24.0066 0.539048 25.0114C0.3987 25.5866 0.279298 26.1687 0.180845 26.7599C0.164785 26.855 0.15012 26.9512 0.135457 27.0463C0.0823896 27.389 0.0377056 27.7338 0 28.081H47C46.9623 27.7338 46.9176 27.389 46.8652 27.0463L46.8687 27.044Z" fill="#34A853"/>
<path d="M35.7253 21.5807C36.6659 20.9547 36.8027 19.5062 36.0304 18.3456C35.2589 17.185 33.8708 16.7517 32.9309 17.3778C31.9904 18.0039 31.8535 19.4523 32.6258 20.6129C33.3973 21.7735 34.7855 22.2068 35.7253 21.5807Z" fill="#202124"/>
<path d="M14.4155 20.6169C15.1878 19.4563 15.0509 18.0079 14.1104 17.3818C13.1698 16.7557 11.7824 17.189 11.0101 18.3496C10.2386 19.5102 10.3754 20.9586 11.3153 21.5847C12.2558 22.2108 13.644 21.7775 14.4155 20.6169Z" fill="#202124"/>
</svg>
